<svg xmlns="http://www.w3.org/2000/svg" version="1.1" xmlns:xlink="http://www.w3.org/1999/xlink" xmlns:svgjs="http://svgjs.dev/svgjs" width="1500" height="1500" viewBox="0 0 1500 1500"><rect width="1500" height="1500" fill="#ffffff"></rect><g transform="matrix(0.6666666666666666,0,0,0.6666666666666666,249.39393939393938,438.58569500674764)"><svg viewBox="0 0 396 247" data-background-color="#ffffff" preserveAspectRatio="xMidYMid meet" height="935" width="1500" xmlns="http://www.w3.org/2000/svg" xmlns:xlink="http://www.w3.org/1999/xlink"><g id="tight-bounds" transform="matrix(1,0,0,1,0.2400000000000091,-0.09999999999999432)"><svg viewBox="0 0 395.52 247.2" height="247.2" width="395.52"><g><svg></svg></g><g><svg viewBox="0 0 395.52 247.2" height="247.2" width="395.52"><g transform="matrix(1,0,0,1,75.54432000000001,94.83968360933093)"><svg viewBox="0 0 244.43135999999996 57.52063278133811" height="57.52063278133811" width="244.43135999999996"><g><svg viewBox="0 0 244.43135999999996 57.52063278133811" height="57.52063278133811" width="244.43135999999996"><g><svg viewBox="0 0 244.43135999999996 57.52063278133811" height="57.52063278133811" width="244.43135999999996"><g><svg viewBox="0 0 244.43135999999996 57.52063278133811" height="57.52063278133811" width="244.43135999999996"><g id="textblocktransform"><svg viewBox="0 0 244.43135999999996 57.52063278133811" height="57.52063278133811" width="244.43135999999996" id="textblock"><g><svg viewBox="0 0 244.43135999999996 57.52063278133811" height="57.52063278133811" width="244.43135999999996"><g transform="matrix(1,0,0,1,0,0)"><svg width="244.43135999999996" viewBox="3.8999999999999995 -35.5 200.62 46" height="57.52063278133811" data-palette-color="#919591"><path d="M3.9 0L3.9-27.45Q3.9-31.6 6-33.55 8.1-35.5 11.2-35.5L11.2-35.5Q12.15-35.5 13.05-35.35L13.05-35.35 12.6-32.9Q11.7-33 11.3-33L11.3-33Q6.7-33 6.7-27.45L6.7-27.45 6.7-25.05 12.4-25.05 11.2-22.4 6.7-22.4 6.7 0 3.9 0ZM19.7-32.15Q19.05-32.15 18.52-32.68 18-33.2 18-33.85L18-33.85Q18-34.5 18.5-35 19-35.5 19.7-35.5L19.7-35.5Q20.4-35.5 20.87-35.02 21.35-34.55 21.35-33.85L21.35-33.85Q21.35-33.15 20.85-32.65 20.35-32.15 19.7-32.15L19.7-32.15ZM18.25 0L18.25-25.05 21.05-25.05 21.05 0 18.25 0ZM29.25 0L29.25-35 32.05-35 32.05 0 29.25 0ZM54.54-1.75Q52.74-0.6 50.44 0 48.14 0.6 45.84 0.6L45.84 0.6Q42.14 0.6 39.97-1.23 37.79-3.05 37.79-6.7L37.79-6.7 37.79-16.95Q37.79-21 40.32-23.25 42.84-25.5 46.99-25.5L46.99-25.5Q51.14-25.5 53.47-23.28 55.79-21.05 55.79-17.1L55.79-17.1 55.79-10.6 40.59-9.75 40.59-6.7Q40.59-4.3 42.14-3.1 43.69-1.9 46.19-1.9L46.19-1.9Q49.69-1.9 53.44-3.9L53.44-3.9 54.54-1.75ZM52.99-17.45Q52.99-20.55 51.04-21.83 49.09-23.1 46.94-23.1L46.94-23.1Q44.19-23.1 42.39-21.6 40.59-20.1 40.59-16.9L40.59-16.9 40.59-12.5 52.99-13.1 52.99-17.45ZM76.09-6.35Q76.39-4.1 78.34-2.98 80.29-1.85 82.69-1.85L82.69-1.85Q84.94-1.85 86.79-2.88 88.64-3.9 88.64-6.2L88.64-6.2Q88.64-7.7 87.76-8.68 86.89-9.65 85.59-10.25 84.29-10.85 82.09-11.55L82.09-11.55Q79.64-12.35 78.09-13.05 76.54-13.75 75.39-15.03 74.24-16.3 74.04-18.25L74.04-18.25 73.99-18.85Q73.99-20.5 74.91-22.08 75.84-23.65 77.76-24.65 79.69-25.65 82.59-25.65L82.59-25.65Q84.19-25.65 85.41-25.33 86.64-25 87.34-24.65 88.04-24.3 88.19-24.2L88.19-24.2 87.24-21.9Q87.09-22 86.51-22.3 85.94-22.6 84.89-22.9 83.84-23.2 82.59-23.2L82.59-23.2Q80.19-23.2 78.49-22.08 76.79-20.95 76.79-18.95L76.79-18.95Q76.79-17.05 78.34-16.05 79.89-15.05 83.09-14.05L83.09-14.05Q85.79-13.15 87.44-12.35 89.09-11.55 90.26-10.08 91.44-8.6 91.44-6.25L91.44-6.25Q91.44-3.25 89.21-1.25 86.99 0.75 82.69 0.75L82.69 0.75Q79.84 0.75 77.76-0.23 75.69-1.2 74.61-2.8 73.54-4.4 73.44-6.35L73.44-6.35 76.09-6.35ZM100.69 0.65Q97.89-0.15 96.64-1.9 95.39-3.65 95.39-6.6L95.39-6.6 95.39-35 98.19-35 98.19-25.05 104.19-25.05 102.99-22.4 98.19-22.4 98.19-6.6Q98.19-2.6 101.49-1.5L101.49-1.5 100.69 0.65ZM127.88-9.2Q127.88-5 125.58-2.25 123.28 0.5 118.63 0.5L118.63 0.5Q113.98 0.5 111.61-2.27 109.23-5.05 109.23-9.2L109.23-9.2 109.23-15.8Q109.23-20.55 111.66-23.08 114.08-25.6 118.63-25.6L118.63-25.6Q122.98-25.6 125.43-22.98 127.88-20.35 127.88-15.8L127.88-15.8 127.88-9.2ZM125.08-15.8Q125.08-19.55 123.36-21.3 121.63-23.05 118.63-23.05L118.63-23.05Q115.53-23.05 113.78-21.3 112.03-19.55 112.03-15.8L112.03-15.8 112.03-8.7Q112.03-5.7 113.81-3.85 115.58-2 118.63-2L118.63-2Q121.73-2 123.41-3.83 125.08-5.65 125.08-8.7L125.08-8.7 125.08-15.8ZM132.58 0L132.58-25.05 135.38-25.05 135.23-23.3Q137.58-25.5 141.38-25.5L141.38-25.5Q142.73-25.5 145.08-25.05L145.08-25.05 144.33-22.5Q142.73-23 140.98-23L140.98-23Q138.68-23 137.03-22.15 135.38-21.3 135.38-19.6L135.38-19.6 135.38 0 132.58 0ZM162.18 0Q156.78 0.55 154.38 0.55L154.38 0.55Q149.13 0.55 146.03-1.4 142.93-3.35 142.93-8.45L142.93-8.45 142.93-12.6Q142.93-17.55 146.38-19.25L146.38-19.25Q148.03-20.1 150.58-20.1L150.58-20.1Q152.93-20.1 155.33-19.33 157.73-18.55 159.38-17.3L159.38-17.3Q159.38-20.05 157.78-21.68 156.18-23.3 151.63-23.3L151.63-23.3 151.78-25.45Q156.58-25.45 158.85-23.93 161.13-22.4 161.65-20.3 162.18-18.2 162.18-14.9L162.18-14.9 162.18 0ZM159.38-15.15Q157.33-16.1 155-16.8 152.68-17.5 150.73-17.5L150.73-17.5Q145.68-17.5 145.68-12.45L145.68-12.45 145.68-8.1Q145.68-4.85 147.93-3.38 150.18-1.9 154.33-1.9L154.33-1.9Q156.48-1.9 159.38-2.3L159.38-2.3 159.38-15.15ZM177.68 8.35Q180.98 7.1 180.98 3.15L180.98 3.15 180.98-3.05Q178.88 0.6 174.23 0.6L174.23 0.6Q169.83 0.6 167.38-1.8 164.93-4.2 164.93-8.8L164.93-8.8 164.93-16.25Q164.93-20.65 167.5-23.08 170.08-25.5 174.43-25.5L174.43-25.5Q179.08-25.5 181.18-22.15L181.18-22.15 180.98-25.05 183.78-25.05 183.78 3.2Q183.78 6.2 182.53 7.9 181.28 9.6 178.43 10.5L178.43 10.5 177.68 8.35ZM180.98-16.8Q180.98-19.9 178.98-21.43 176.98-22.95 174.23-22.95L174.23-22.95Q171.58-22.95 169.65-21.33 167.73-19.7 167.73-16L167.73-16 167.73-8.35Q167.73-5.2 169.5-3.6 171.28-2 174.23-2L174.23-2Q177.03-2 179-3.73 180.98-5.45 180.98-8.65L180.98-8.65 180.98-16.8ZM203.27-1.75Q201.47-0.6 199.17 0 196.87 0.6 194.57 0.6L194.57 0.6Q190.87 0.6 188.7-1.23 186.52-3.05 186.52-6.7L186.52-6.7 186.52-16.95Q186.52-21 189.05-23.25 191.57-25.5 195.72-25.5L195.72-25.5Q199.87-25.5 202.2-23.28 204.52-21.05 204.52-17.1L204.52-17.1 204.52-10.6 189.32-9.75 189.32-6.7Q189.32-4.3 190.87-3.1 192.42-1.9 194.92-1.9L194.92-1.9Q198.42-1.9 202.17-3.9L202.17-3.9 203.27-1.75ZM201.72-17.45Q201.72-20.55 199.77-21.83 197.82-23.1 195.67-23.1L195.67-23.1Q192.92-23.1 191.12-21.6 189.32-20.1 189.32-16.9L189.32-16.9 189.32-12.5 201.72-13.1 201.72-17.45Z" opacity="1" transform="matrix(1,0,0,1,0,0)" fill="#919591" class="wordmark-text-0" data-fill-palette-color="primary" id="text-0"></path></svg></g></svg></g></svg></g></svg></g><g></g></svg></g></svg></g></svg></g><g><path d="M83.113 81.26A122.216 122.216 0 0 1 312.407 81.26L307.22 81.26A117.028 117.028 0 0 0 88.3 81.26L83.113 81.26M83.113 165.94A122.216 122.216 0 0 0 312.407 165.94L307.22 165.94A117.028 117.028 0 0 1 88.3 165.94L83.113 165.94" fill="#919591" stroke="transparent" data-fill-palette-color="tertiary"></path></g></svg></g><defs></defs></svg><rect width="395.52" height="247.2" fill="none" stroke="none" visibility="hidden"></rect></g></svg></g></svg>